<svg width="1596" height="1596" viewBox="0 0 1596 1596" fill="none" xmlns="http://www.w3.org/2000/svg">
<g opacity="0.3" filter="url(#filter0_i)">
<path fill-rule="evenodd" clip-rule="evenodd" d="M797.999 1250.05C1047.66 1250.05 1250.05 1047.66 1250.05 797.999C1250.05 548.341 1047.66 345.953 797.999 345.953C548.341 345.953 345.953 548.341 345.953 797.999C345.953 1047.66 548.341 1250.05 797.999 1250.05Z" fill="url(#paint0_linear)" fill-opacity="0.1"/>
</g>
<g opacity="0.3" filter="url(#filter1_i)">
<path fill-rule="evenodd" clip-rule="evenodd" d="M797.997 1397.65C1129.18 1397.65 1397.65 1129.18 1397.65 797.999C1397.65 466.82 1129.18 198.346 797.997 198.346C466.818 198.346 198.344 466.82 198.344 797.999C198.344 1129.18 466.818 1397.65 797.997 1397.65Z" fill="url(#paint1_linear)" fill-opacity="0.1"/>
</g>
<g opacity="0.3" filter="url(#filter2_i)">
<path fill-rule="evenodd" clip-rule="evenodd" d="M798 1596C1238.72 1596 1596 1238.72 1596 798C1596 357.277 1238.72 0 798 0C357.277 0 0 357.277 0 798C0 1238.72 357.277 1596 798 1596Z" fill="url(#paint2_linear)" fill-opacity="0.1"/>
</g>
<g opacity="0.4" filter="url(#filter3_f)">
<path fill-rule="evenodd" clip-rule="evenodd" d="M894.299 940.713C964.826 940.713 1022 893.849 1022 836.04C1022 778.231 964.826 731.367 894.299 731.367C823.771 731.367 766.598 778.231 766.598 836.04C766.598 893.849 823.771 940.713 894.299 940.713Z" fill="#FF2E00"/>
</g>
<g opacity="0.4" filter="url(#filter4_f)">
<path fill-rule="evenodd" clip-rule="evenodd" d="M701.701 865.346C772.228 865.346 829.402 818.482 829.402 760.673C829.402 702.864 772.228 656 701.701 656C631.174 656 574 702.864 574 760.673C574 818.482 631.174 865.346 701.701 865.346Z" fill="#FF0D39"/>
</g>
<g filter="url(#filter5_bi)">
<ellipse cx="797.854" cy="796.914" rx="323.854" ry="328.914" fill="white" fill-opacity="0.03"/>
</g>
<defs>
<filter id="filter0_i" x="345.953" y="345.953" width="904.092" height="908.092" filterUnits="userSpaceOnUse" color-interpolation-filters="sRGB">
<feFlood flood-opacity="0" result="BackgroundImageFix"/>
<feBlend mode="normal" in="SourceGraphic" in2="BackgroundImageFix" result="shape"/>
<feColorMatrix in="SourceAlpha" type="matrix" values="0 0 0 0 0 0 0 0 0 0 0 0 0 0 0 0 0 0 127 0" result="hardAlpha"/>
<feOffset dy="4"/>
<feGaussianBlur stdDeviation="2"/>
<feComposite in2="hardAlpha" operator="arithmetic" k2="-1" k3="1"/>
<feColorMatrix type="matrix" values="0 0 0 0 1 0 0 0 0 1 0 0 0 0 1 0 0 0 0.15 0"/>
<feBlend mode="normal" in2="shape" result="effect1_innerShadow"/>
</filter>
<filter id="filter1_i" x="198.344" y="198.346" width="1199.31" height="1203.31" filterUnits="userSpaceOnUse" color-interpolation-filters="sRGB">
<feFlood flood-opacity="0" result="BackgroundImageFix"/>
<feBlend mode="normal" in="SourceGraphic" in2="BackgroundImageFix" result="shape"/>
<feColorMatrix in="SourceAlpha" type="matrix" values="0 0 0 0 0 0 0 0 0 0 0 0 0 0 0 0 0 0 127 0" result="hardAlpha"/>
<feOffset dy="4"/>
<feGaussianBlur stdDeviation="2"/>
<feComposite in2="hardAlpha" operator="arithmetic" k2="-1" k3="1"/>
<feColorMatrix type="matrix" values="0 0 0 0 1 0 0 0 0 1 0 0 0 0 1 0 0 0 0.15 0"/>
<feBlend mode="normal" in2="shape" result="effect1_innerShadow"/>
</filter>
<filter id="filter2_i" x="0" y="0" width="1596" height="1600" filterUnits="userSpaceOnUse" color-interpolation-filters="sRGB">
<feFlood flood-opacity="0" result="BackgroundImageFix"/>
<feBlend mode="normal" in="SourceGraphic" in2="BackgroundImageFix" result="shape"/>
<feColorMatrix in="SourceAlpha" type="matrix" values="0 0 0 0 0 0 0 0 0 0 0 0 0 0 0 0 0 0 127 0" result="hardAlpha"/>
<feOffset dy="4"/>
<feGaussianBlur stdDeviation="2"/>
<feComposite in2="hardAlpha" operator="arithmetic" k2="-1" k3="1"/>
<feColorMatrix type="matrix" values="0 0 0 0 1 0 0 0 0 1 0 0 0 0 1 0 0 0 0.15 0"/>
<feBlend mode="normal" in2="shape" result="effect1_innerShadow"/>
</filter>
<filter id="filter3_f" x="494.769" y="459.539" width="799.058" height="753.002" filterUnits="userSpaceOnUse" color-interpolation-filters="sRGB">
<feFlood flood-opacity="0" result="BackgroundImageFix"/>
<feBlend mode="normal" in="SourceGraphic" in2="BackgroundImageFix" result="shape"/>
<feGaussianBlur stdDeviation="135.914" result="effect1_foregroundBlur"/>
</filter>
<filter id="filter4_f" x="302.172" y="384.172" width="799.058" height="753.002" filterUnits="userSpaceOnUse" color-interpolation-filters="sRGB">
<feFlood flood-opacity="0" result="BackgroundImageFix"/>
<feBlend mode="normal" in="SourceGraphic" in2="BackgroundImageFix" result="shape"/>
<feGaussianBlur stdDeviation="135.914" result="effect1_foregroundBlur"/>
</filter>
<filter id="filter5_bi" x="374" y="368" width="847.708" height="857.829" filterUnits="userSpaceOnUse" color-interpolation-filters="sRGB">
<feFlood flood-opacity="0" result="BackgroundImageFix"/>
<feGaussianBlur in="BackgroundImage" stdDeviation="50"/>
<feComposite in2="SourceAlpha" operator="in" result="effect1_backgroundBlur"/>
<feBlend mode="normal" in="SourceGraphic" in2="effect1_backgroundBlur" result="shape"/>
<feColorMatrix in="SourceAlpha" type="matrix" values="0 0 0 0 0 0 0 0 0 0 0 0 0 0 0 0 0 0 127 0" result="hardAlpha"/>
<feOffset dy="4"/>
<feGaussianBlur stdDeviation="2"/>
<feComposite in2="hardAlpha" operator="arithmetic" k2="-1" k3="1"/>
<feColorMatrix type="matrix" values="0 0 0 0 1 0 0 0 0 1 0 0 0 0 1 0 0 0 0.15 0"/>
<feBlend mode="normal" in2="shape" result="effect2_innerShadow"/>
</filter>
<linearGradient id="paint0_linear" x1="797.999" y1="345.953" x2="797.999" y2="1250.05" gradientUnits="userSpaceOnUse">
<stop stop-color="white"/>
<stop offset="1" stop-color="white" stop-opacity="0"/>
</linearGradient>
<linearGradient id="paint1_linear" x1="797.997" y1="198.346" x2="797.997" y2="1397.65" gradientUnits="userSpaceOnUse">
<stop stop-color="white"/>
<stop offset="1" stop-color="white" stop-opacity="0"/>
</linearGradient>
<linearGradient id="paint2_linear" x1="798" y1="0" x2="798" y2="1596" gradientUnits="userSpaceOnUse">
<stop stop-color="white"/>
<stop offset="1" stop-color="white" stop-opacity="0"/>
</linearGradient>
</defs>
</svg>
