<svg width="42" height="42" viewBox="0 0 42 42" fill="none" xmlns="http://www.w3.org/2000/svg">
<path fill-rule="evenodd" clip-rule="evenodd" d="M10.9393 12.9393C11.5251 12.3536 12.4749 12.3536 13.0607 12.9393L18.0607 17.9393C18.6464 18.5251 18.6464 19.4749 18.0607 20.0607C17.4749 20.6464 16.5251 20.6464 15.9393 20.0607L10.9393 15.0607C10.3536 14.4749 10.3536 13.5251 10.9393 12.9393Z" fill="white"/>
<path fill-rule="evenodd" clip-rule="evenodd" d="M18.0607 12.9393C18.6464 13.5251 18.6464 14.4749 18.0607 15.0607L13.0607 20.0607C12.4749 20.6464 11.5251 20.6464 10.9393 20.0607C10.3536 19.4749 10.3536 18.5251 10.9393 17.9393L15.9393 12.9393C16.5251 12.3536 17.4749 12.3536 18.0607 12.9393Z" fill="white"/>
<path fill-rule="evenodd" clip-rule="evenodd" d="M23.9393 15.9393C24.5251 15.3536 25.4749 15.3536 26.0607 15.9393L31.0607 20.9393C31.6464 21.5251 31.6464 22.4749 31.0607 23.0607C30.4749 23.6464 29.5251 23.6464 28.9393 23.0607L23.9393 18.0607C23.3536 17.4749 23.3536 16.5251 23.9393 15.9393Z" fill="white"/>
<path fill-rule="evenodd" clip-rule="evenodd" d="M31.0607 15.9393C31.6464 16.5251 31.6464 17.4749 31.0607 18.0607L26.0607 23.0607C25.4749 23.6464 24.5251 23.6464 23.9393 23.0607C23.3536 22.4749 23.3536 21.5251 23.9393 20.9393L28.9393 15.9393C29.5251 15.3536 30.4749 15.3536 31.0607 15.9393Z" fill="white"/>
<path fill-rule="evenodd" clip-rule="evenodd" d="M13 30C13 29.1716 13.6716 28.5 14.5 28.5H27.5C28.3284 28.5 29 29.1716 29 30C29 30.8284 28.3284 31.5 27.5 31.5H14.5C13.6716 31.5 13 30.8284 13 30Z" fill="white"/>
</svg>
