<svg width="1920" height="1080" viewBox="0 0 1920 1080" fill="none" xmlns="http://www.w3.org/2000/svg">
<path fill-rule="evenodd" clip-rule="evenodd" d="M1451.05 495.659C1446.85 495.859 1442.85 496.659 1439.85 498.059C1435.25 500.259 1433.25 503.659 1434.05 508.059C1434.25 508.859 1434.05 509.859 1433.65 510.459C1441.65 510.059 1448.25 503.259 1451.05 495.659Z" fill="#F6F7F7"/>
<path fill-rule="evenodd" clip-rule="evenodd" d="M1481.25 506.859C1474.05 500.259 1464.65 496.659 1456.05 495.859C1456.05 496.259 1456.25 496.859 1456.25 497.259C1458.05 508.659 1471.85 510.659 1481.25 506.859Z" fill="#F6F7F7"/>
<path fill-rule="evenodd" clip-rule="evenodd" d="M1534.25 506.259C1528.85 502.859 1523.65 500.459 1518.85 498.659C1523.45 503.459 1528.85 505.659 1534.25 506.259Z" fill="#F6F7F7"/>
<path fill-rule="evenodd" clip-rule="evenodd" d="M1573.45 501.859C1570.05 499.459 1566.45 497.459 1563.65 496.659C1559.45 495.459 1555.85 496.059 1553.25 498.059C1551.65 499.259 1550.25 501.259 1549.65 503.659C1550.25 503.459 1551.05 503.059 1551.65 502.659C1557.25 504.059 1564.45 503.859 1573.45 501.859Z" fill="#F6F7F7"/>
<path d="M1297.65 737.659H1417.85L1583.45 519.859C1584.05 517.259 1583.45 514.259 1581.85 511.259C1578.05 504.459 1569.45 498.659 1563.65 497.059C1559.45 495.859 1555.85 496.459 1553.25 498.459C1550.45 500.659 1548.85 504.459 1548.85 509.059C1548.85 510.259 1548.45 511.259 1547.45 512.059C1546.05 513.259 1543.85 513.459 1542.25 512.259C1521.25 496.259 1501.45 493.059 1493.65 498.059C1490.85 499.859 1490.05 502.459 1490.85 506.259C1491.25 508.059 1490.45 509.859 1488.85 510.659C1487.25 511.459 1485.25 511.059 1484.05 509.859C1471.85 496.259 1450.85 492.859 1439.85 498.259C1435.25 500.459 1433.25 503.859 1434.05 508.259C1434.45 510.059 1433.45 511.659 1432.05 512.459C1430.45 513.259 1428.65 512.859 1427.45 511.659C1420.85 505.059 1392.25 496.859 1377.65 500.659C1375.25 501.259 1373.65 502.659 1372.45 504.659C1370.25 508.259 1297.65 737.659 1297.65 737.659Z" fill="#00FF89"/>
<path d="M1141.85 737.659C1138.05 731.059 1140.25 725.859 1147.05 725.859C1150.45 725.859 1154.45 727.259 1158.25 729.259C1157.25 728.059 1156.45 727.059 1155.65 725.859C1146.05 711.459 1150.05 699.659 1164.45 699.659C1170.25 699.659 1176.65 701.459 1183.05 704.659C1172.05 683.259 1179.85 666.659 1202.05 666.659C1221.85 666.659 1247.05 679.459 1264.65 697.259C1266.85 692.059 1272.25 688.859 1280.45 688.859C1297.85 688.859 1321.25 703.059 1332.85 720.459C1335.25 723.859 1336.85 727.259 1337.85 730.459C1338.65 730.259 1339.65 730.059 1340.85 730.059C1346.05 730.059 1352.65 733.259 1357.85 737.659H1141.85Z" fill="#F6F7F7"/>
<path d="M1466.25 585.059C1469.85 586.259 1475.25 583.459 1478.05 579.059C1480.85 574.659 1480.25 570.259 1476.65 569.059C1473.05 567.859 1467.65 570.659 1464.85 575.059C1462.05 579.659 1462.65 584.059 1466.25 585.059Z" fill="#231F20"/>
<path d="M1509.05 585.059C1512.65 586.259 1518.05 583.459 1520.85 579.059C1523.65 574.659 1523.05 570.259 1519.45 569.059C1515.85 567.859 1510.45 570.659 1507.65 575.059C1504.85 579.659 1505.45 584.059 1509.05 585.059Z" fill="#231F20"/>
<path d="M1471.45 600.459C1465.85 623.259 1488.85 612.259 1496.05 603.259" stroke="#231F20" stroke-width="8" stroke-miterlimit="10" stroke-linecap="round" stroke-linejoin="round"/>
<path fill-rule="evenodd" clip-rule="evenodd" d="M1376.85 469.859C1358.85 467.459 1352.05 484.659 1372.85 493.659C1373.34 493.416 1373.82 493.248 1374.35 493.063L1374.35 493.063C1374.69 492.943 1375.06 492.816 1375.45 492.659C1386.45 489.659 1412.25 493.059 1426.65 501.059C1428.05 496.659 1431.25 493.059 1436.25 490.659C1440.85 488.459 1446.45 487.259 1452.65 487.459V487.059C1452.65 487.159 1452.7 487.209 1452.75 487.259C1452.8 487.309 1452.85 487.359 1452.85 487.459C1463.05 487.659 1474.25 491.059 1483.45 498.059C1484.45 495.259 1486.45 492.659 1489.25 490.859C1498.65 484.859 1518.65 485.859 1541.65 501.459C1542.85 497.459 1545.05 494.059 1548.25 491.659C1552.85 488.059 1559.05 487.059 1565.65 488.859C1570.05 490.059 1575.45 492.859 1580.25 497.059C1584.05 490.459 1580.05 479.459 1569.65 482.059C1587.25 442.259 1559.45 444.259 1549.85 445.659C1556.25 435.859 1545.25 421.259 1534.05 431.459C1514.02 401.498 1512.56 423.783 1512.3 427.894L1512.3 427.895C1512.28 428.174 1512.27 428.37 1512.25 428.459C1492.85 412.259 1481.85 412.259 1482.65 426.459C1465.05 411.859 1454.65 413.459 1451.45 420.859C1436.65 404.659 1416.85 407.259 1423.85 425.659C1400.05 411.659 1381.65 430.259 1393.05 442.459C1351.05 434.659 1333.85 462.059 1376.85 469.859ZM1540.25 452.259C1540.18 452.335 1540.13 452.411 1540.09 452.477C1540.02 452.582 1539.98 452.659 1539.85 452.659C1539.65 452.659 1539.45 452.459 1539.45 452.459C1539.65 452.459 1540.05 452.459 1540.25 452.259ZM1530.61 454.804C1531.45 458.718 1529.8 462.553 1526.59 465.573C1524.98 467.086 1522.45 467.008 1520.94 465.399C1519.42 463.789 1519.5 461.257 1521.11 459.744C1522.9 458.065 1522.88 456.925 1522.79 456.489C1522.67 455.937 1522.09 454.946 1520.31 454.198C1516.8 452.73 1509.61 452.901 1501.41 459.732C1499.72 461.146 1497.19 460.917 1495.78 459.22C1494.36 457.523 1494.59 455 1496.29 453.586C1506.09 445.417 1516.4 443.888 1523.4 446.82C1526.86 448.271 1529.79 451.006 1530.61 454.804ZM1445.87 457.579C1444.23 454.893 1443.32 452.822 1442.89 451.283C1442.44 449.727 1442.55 448.966 1442.63 448.715C1442.67 448.589 1442.69 448.546 1442.86 448.452C1443.15 448.301 1443.77 448.109 1444.85 448.109C1447.04 448.109 1450.02 448.89 1452.88 450.306C1455.79 451.742 1457.93 453.52 1458.88 455.011C1460.07 456.873 1462.54 457.419 1464.4 456.231C1466.27 455.042 1466.81 452.569 1465.62 450.707C1463.58 447.497 1460 444.9 1456.43 443.137C1452.83 441.353 1448.62 440.109 1444.85 440.109C1441.21 440.109 1436.46 441.42 1434.96 446.427C1434.34 448.521 1434.48 450.804 1435.09 453.122C1430.9 452.068 1427.25 451.617 1424.13 451.694C1419.03 451.821 1414.77 453.4 1412.28 456.737C1409.74 460.123 1409.79 464.284 1411.12 467.837C1412.44 471.389 1415.14 474.727 1418.71 477.303C1420.5 478.595 1423 478.191 1424.3 476.399C1425.59 474.607 1425.18 472.107 1423.39 470.815C1420.86 468.991 1419.29 466.854 1418.61 465.037C1417.93 463.221 1418.24 462.12 1418.68 461.531C1419.16 460.893 1420.58 459.785 1424.33 459.692C1428.05 459.6 1433.5 460.551 1441.04 463.4C1442.64 464.004 1444.44 463.528 1445.53 462.214C1446.62 460.9 1446.76 459.038 1445.87 457.579Z" fill="#F6F7F7"/>
<path d="M1310.1 444.716C1311.87 439.02 1304.41 431.639 1293.44 428.231C1282.47 424.822 1272.14 426.677 1270.37 432.373C1268.6 438.07 1276.06 445.451 1287.03 448.859C1298 452.267 1308.33 450.412 1310.1 444.716Z" fill="#F6F7F7"/>
<path d="M1372 412.04C1373.25 408.032 1367.93 402.816 1360.12 400.391C1352.32 397.966 1344.98 399.25 1343.74 403.258C1342.49 407.267 1347.81 412.482 1355.61 414.907C1363.42 417.332 1370.76 416.049 1372 412.04Z" fill="#F6F7F7"/>
<path d="M1240.64 405.375C1241.07 402.758 1237.78 400.052 1233.31 399.331C1228.84 398.609 1224.88 400.146 1224.45 402.763C1224.03 405.38 1227.31 408.086 1231.78 408.808C1236.26 409.529 1240.22 407.992 1240.64 405.375Z" fill="#F6F7F7"/>
</svg>
