<svg width="1920" height="1080" viewBox="0 0 1920 1080" fill="none" xmlns="http://www.w3.org/2000/svg">
<path d="M949.668 705.976C943.508 697.953 949.595 678.567 962.468 683.076C948.632 662.66 987.205 650.525 990.197 680.725C1003.14 664.854 1025.12 697.919 998.073 700.804C1007.34 711.688 977.7 732.528 970.138 719.929C963.081 708.1 955.244 713.217 949.668 705.976Z" fill="#F6F7F7"/>
<path fill-rule="evenodd" clip-rule="evenodd" d="M1364.03 707.62C1345.09 718.347 1374.89 736.487 1393.88 722.531C1398.3 729.367 1408.47 731.684 1417.25 726.81C1411.54 723.156 1407.55 717.047 1406.94 709.916C1405.8 696.657 1411.76 683.452 1423.97 675.044C1411.35 657.344 1415.69 632.763 1433.6 620.427C1423.97 606.917 1424.21 589.397 1432.84 576.374C1430.66 574.937 1427.99 574.191 1424.89 574.573C1429.49 549.727 1382.76 555.467 1398.86 577.174C1379.59 564.828 1370.09 602.04 1390.85 603.303C1391.35 603.334 1391.82 603.386 1392.26 603.459C1383.98 605.255 1380.08 615.349 1381.21 623.496C1372.61 623.389 1364.64 628.895 1361.67 636.789C1361.67 637.4 1361.54 638.02 1361.24 638.603C1361.12 638.856 1361 639.113 1360.9 639.374C1360.43 641.468 1360.31 643.691 1360.6 645.991C1360.91 647.091 1361.4 648.12 1362.05 649.01C1363.89 651.536 1367.15 653.158 1372.01 651.393C1373.77 650.753 1375.73 651.421 1376.74 652.999C1377.75 654.577 1377.53 656.643 1376.21 657.972C1373.73 660.463 1372.72 662.785 1372.46 664.683C1372.2 666.585 1372.65 668.35 1373.58 669.838C1375.53 672.971 1379.33 674.538 1382.57 673.544C1384.68 672.897 1386.92 674.084 1387.57 676.196C1388.22 678.308 1387.03 680.545 1384.92 681.193C1377.75 683.391 1370.4 679.851 1366.79 674.078C1364.94 671.114 1364 667.476 1364.54 663.589C1364.71 662.357 1365.02 661.128 1365.48 659.913C1361.37 659.221 1357.94 656.947 1355.59 653.724C1355.31 653.343 1355.05 652.949 1354.8 652.545C1336.76 658.867 1340.55 685.242 1358.06 684.663C1355.97 688.06 1354.97 692.105 1355.79 696.046C1356.33 700.961 1359.49 705.173 1364.03 707.62ZM1400.1 623.622C1399.02 621.693 1396.58 621.002 1394.65 622.078C1392.72 623.154 1392.03 625.591 1393.11 627.52C1397.43 635.264 1406.16 636.102 1412.3 633.084C1415.43 631.547 1418.17 628.927 1419.64 625.397C1421.13 621.808 1421.17 617.598 1419.42 613.202C1418.6 611.15 1416.27 610.151 1414.22 610.97C1412.17 611.788 1411.17 614.116 1411.99 616.167C1413.04 618.818 1412.86 620.852 1412.25 622.326C1411.61 623.86 1410.37 625.121 1408.77 625.905C1405.47 627.527 1401.85 626.763 1400.1 623.622Z" fill="#F6F7F7"/>
<path fill-rule="evenodd" clip-rule="evenodd" d="M1451.03 564.193C1443.26 553.289 1442.35 540.37 1447.32 529.62L1447.32 529.619C1451.16 521.326 1460.75 517.176 1469.68 519.851L1698.34 600.992L1675.99 727.709L1433.14 727.135C1423.85 726.609 1416.27 719.426 1415.48 710.302C1414.47 698.507 1419.75 686.678 1430.8 679.068C1431.68 678.459 1432.28 677.522 1432.47 676.467C1432.66 675.411 1432.41 674.325 1431.79 673.452C1420.47 657.573 1424.35 635.521 1440.43 624.451C1441.31 623.842 1441.91 622.905 1442.1 621.849C1442.29 620.794 1442.04 619.707 1441.42 618.834C1430.1 602.956 1433.98 580.904 1450.06 569.833C1450.94 569.229 1451.54 568.299 1451.73 567.25C1451.92 566.201 1451.68 565.12 1451.07 564.247L1451.05 564.224L1451.03 564.193Z" fill="#00FF89"/>
<path d="M1539.56 666.162C1540.24 661.841 1537.29 657.785 1532.97 657.1C1528.65 656.416 1524.6 659.364 1523.91 663.684C1523.23 668.004 1526.18 672.061 1530.5 672.745C1534.82 673.43 1538.87 670.482 1539.56 666.162Z" fill="#231F20"/>
<path d="M1548.13 612.056C1548.81 607.736 1545.86 603.679 1541.54 602.995C1537.22 602.311 1533.17 605.258 1532.48 609.578C1531.8 613.899 1534.75 617.956 1539.07 618.64C1543.39 619.324 1547.44 616.377 1548.13 612.056Z" fill="#231F20"/>
<path d="M1572.16 624.084C1563.34 624.915 1555.86 631.627 1554.41 640.773C1552.96 649.939 1558.01 658.615 1566.13 662.149" stroke="#231F20" stroke-width="8" stroke-miterlimit="10" stroke-linecap="round" stroke-linejoin="round"/>
<path d="M1119.92 721.631C1113.54 713.891 1124.52 703.351 1131.74 712.351C1131.24 699.351 1158.54 701.851 1149.94 717.611C1169.42 712.811 1149.78 757.771 1119.92 721.631Z" fill="#F6F7F7"/>
<path d="M1091.41 691.766C1064.35 702.566 1070.97 656.806 1096.53 670.626C1117.65 656.566 1135.31 707.666 1091.41 691.766Z" fill="#F6F7F7"/>
<path d="M1247.42 714.953C1228.58 709.373 1230.56 686.153 1247.24 687.353C1237.28 674.633 1258.52 658.353 1270.32 675.233C1281.28 660.313 1306.48 672.973 1296.68 693.953C1314.8 696.953 1304.94 723.593 1286.78 716.313C1265.76 707.893 1257.3 717.433 1247.42 714.953Z" fill="#F6F7F7"/>
<path d="M1028.69 717.608C1028.49 710.228 1040.37 701.428 1046.03 709.608C1046.61 691.648 1074.55 701.008 1063.39 720.088C1077.81 716.268 1076.61 745.168 1059.45 735.288C1060.25 745.688 1033.85 745.268 1034.81 734.588C1035.67 724.588 1028.85 724.248 1028.69 717.608Z" fill="#F6F7F7"/>
<path d="M1179.97 734.996C1172.05 731.176 1176.97 718.756 1185.99 723.296C1180.85 713.136 1203.49 705.156 1202.39 720.836C1225.87 719.076 1216.95 752.876 1179.97 734.996Z" fill="#F6F7F7"/>
</svg>
