<svg width="1920" height="1080" viewBox="0 0 1920 1080" fill="none" xmlns="http://www.w3.org/2000/svg">
<path d="M1127.92 725.073C1121.54 717.333 1132.52 706.793 1139.74 715.793C1139.24 702.793 1166.54 705.293 1157.94 721.053C1177.42 716.253 1157.78 761.213 1127.92 725.073Z" fill="#F6F7F7"/>
<path d="M1189.22 736.613C1170.38 731.033 1172.36 707.813 1189.04 709.013C1179.08 696.293 1200.32 680.013 1212.12 696.893C1223.08 681.973 1248.28 694.633 1238.48 715.613C1256.6 718.613 1246.74 745.253 1228.58 737.973C1207.56 729.553 1199.1 739.093 1189.22 736.613Z" fill="#F6F7F7"/>
<path d="M1484.96 714.013C1484.76 706.633 1496.64 697.833 1502.3 706.013C1502.88 688.053 1530.82 697.413 1519.66 716.493C1534.08 712.673 1532.88 741.573 1515.72 731.693C1516.52 742.093 1490.12 741.673 1491.08 730.993C1491.94 720.993 1485.12 720.653 1484.96 714.013Z" fill="#F6F7F7"/>
<path fill-rule="evenodd" clip-rule="evenodd" d="M1298.5 414.054C1297.95 400.055 1316.08 396.47 1326.2 402.352C1331.9 392.908 1348 388.947 1357.39 404.214C1365.7 394.16 1378.9 395.062 1386.79 402.253C1395.32 398.336 1410.04 402.137 1407.94 413.734C1419.32 403.072 1430.71 413.627 1430.12 424.772C1429.36 425.017 1428.62 425.318 1427.9 425.674C1422.08 428.543 1418 434.77 1418 441.951C1418 444.16 1419.79 445.951 1422 445.951C1424.21 445.951 1426 444.16 1426 441.951C1426 437.812 1428.36 434.369 1431.44 432.848C1431.88 432.633 1432.33 432.453 1432.81 432.314C1442.11 435.349 1449.22 445.976 1441.49 455.553C1456.5 451.897 1461.42 468.922 1453.81 477.058C1450.38 471.735 1445.08 467.637 1438.54 465.907C1425.41 462.437 1411.24 465.53 1400.2 475.048C1384.23 461.5 1360.71 461.501 1344.75 475.058C1328.79 461.503 1305.26 461.498 1289.3 475.049C1278.26 465.547 1264.09 462.438 1250.97 465.928L1250.97 465.929C1245.62 467.354 1241.09 470.359 1237.74 474.323C1229.31 462.484 1235.62 445.765 1251.85 447.854C1241.57 433.051 1261.68 416.527 1276.23 427.209C1269.73 414.344 1286.95 399.603 1298.5 414.054ZM1317.08 438.415C1314.58 433.892 1315.67 430.425 1317.88 428.211C1320.32 425.758 1324.36 424.62 1328.03 425.784C1330.13 426.453 1332.38 425.289 1333.05 423.184C1333.72 421.078 1332.56 418.829 1330.45 418.16C1323.86 416.064 1316.71 418.047 1312.21 422.564C1309.39 425.39 1307.68 429.133 1307.64 433.303C1306.37 433.038 1305.11 432.92 1303.87 432.945C1299.94 433.023 1296.5 434.52 1293.86 436.814C1288.72 441.28 1286.37 449.093 1289.67 455.829C1290.64 457.814 1293.03 458.636 1295.02 457.666C1297 456.696 1297.82 454.301 1296.85 452.316C1295.37 449.272 1296.32 445.275 1299.11 442.851C1300.43 441.699 1302.1 440.982 1304.02 440.943C1305.94 440.905 1308.39 441.541 1311.24 443.596C1312.76 444.692 1314.83 444.587 1316.23 443.345C1317.64 442.102 1317.99 440.054 1317.08 438.415ZM1377.15 438.219C1378.88 436.854 1379.19 434.339 1377.82 432.602C1376.46 430.865 1373.94 430.563 1372.2 431.928C1365.23 437.407 1365.77 446.166 1369.71 451.756C1371.72 454.602 1374.74 456.9 1378.45 457.797C1382.23 458.709 1386.39 458.091 1390.46 455.671C1392.36 454.541 1392.98 452.086 1391.85 450.188C1390.72 448.289 1388.27 447.666 1386.37 448.796C1383.92 450.255 1381.88 450.395 1380.33 450.02C1378.71 449.631 1377.27 448.597 1376.25 447.146C1374.13 444.141 1374.32 440.44 1377.15 438.219Z" fill="#F6F7F7"/>
<path fill-rule="evenodd" clip-rule="evenodd" d="M1403.09 483.297C1412.48 473.746 1425.04 470.614 1436.49 473.64L1436.49 473.64C1445.33 475.979 1451.08 484.707 1449.99 493.964L1409.79 733.233H1281.12L1239.51 493.97C1238.42 484.732 1244.18 476.017 1253.03 473.658C1264.47 470.617 1277.03 473.762 1286.45 483.32C1287.2 484.084 1288.22 484.514 1289.3 484.513C1290.37 484.513 1291.4 484.082 1292.15 483.318C1305.82 469.413 1328.21 469.41 1341.9 483.32C1342.66 484.084 1343.68 484.514 1344.76 484.513C1345.83 484.513 1346.86 484.082 1347.61 483.318C1361.28 469.413 1383.67 469.41 1397.36 483.32C1398.11 484.079 1399.13 484.509 1400.2 484.513C1401.26 484.518 1402.29 484.097 1403.04 483.344L1403.06 483.324L1403.09 483.297Z" fill="#00FF89"/>
<path d="M1355.58 598C1355.67 604.517 1350.46 609.865 1343.94 609.94C1337.42 610.03 1332.08 604.817 1332 598.3" fill="#231F20"/>
<path d="M1316.38 588.413C1320.75 588.413 1324.3 584.868 1324.3 580.493C1324.3 576.119 1320.75 572.573 1316.38 572.573C1312 572.573 1308.46 576.119 1308.46 580.493C1308.46 584.868 1312 588.413 1316.38 588.413Z" fill="#231F20"/>
<path d="M1371.16 588.413C1375.53 588.413 1379.08 584.867 1379.08 580.493C1379.08 576.119 1375.53 572.573 1371.16 572.573C1366.78 572.573 1363.24 576.119 1363.24 580.493C1363.24 584.867 1366.78 588.413 1371.16 588.413Z" fill="#231F20"/>
</svg>
