<svg width="1920" height="1080" viewBox="0 0 1920 1080" fill="none" xmlns="http://www.w3.org/2000/svg">
<path d="M1137.92 725.073C1131.54 717.333 1142.52 706.793 1149.74 715.793C1149.24 702.793 1176.54 705.293 1167.94 721.053C1187.42 716.253 1167.78 761.213 1137.92 725.073Z" fill="#F6F7F7"/>
<path d="M1457.68 736.133C1430.62 746.933 1437.24 701.173 1462.8 714.993C1483.92 700.933 1501.58 752.033 1457.68 736.133Z" fill="#F6F7F7"/>
<path d="M1199.22 736.613C1180.38 731.033 1182.36 707.813 1199.04 709.013C1189.08 696.293 1210.32 680.013 1222.12 696.893C1233.08 681.973 1258.28 694.633 1248.48 715.613C1266.6 718.613 1256.74 745.253 1238.58 737.973C1217.56 729.553 1209.1 739.093 1199.22 736.613Z" fill="#F6F7F7"/>
<path d="M1494.96 714.013C1494.76 706.633 1506.64 697.833 1512.3 706.013C1512.88 688.053 1540.82 697.413 1529.66 716.493C1544.08 712.673 1542.88 741.573 1525.72 731.693C1526.52 742.093 1500.12 741.673 1501.08 730.993C1501.94 720.993 1495.12 720.653 1494.96 714.013Z" fill="#F6F7F7"/>
<path d="M1553.44 733.733C1545.52 729.913 1550.44 717.493 1559.46 722.033C1554.32 711.873 1576.96 703.893 1575.86 719.573C1599.34 717.813 1590.42 751.613 1553.44 733.733Z" fill="#F6F7F7"/>
<path fill-rule="evenodd" clip-rule="evenodd" d="M1308.49 414.054C1307.95 400.055 1326.08 396.47 1336.2 402.353C1341.9 392.908 1358 388.947 1367.39 404.214C1375.7 394.16 1388.9 395.062 1396.79 402.253C1405.32 398.336 1420.04 402.137 1417.94 413.734C1429.32 403.072 1440.71 413.628 1440.12 424.772C1439.36 425.017 1438.62 425.318 1437.9 425.674C1432.08 428.543 1428 434.77 1428 441.951C1428 444.16 1429.79 445.951 1432 445.951C1434.21 445.951 1436 444.16 1436 441.951C1436 437.812 1438.36 434.369 1441.44 432.848C1441.88 432.633 1442.33 432.453 1442.81 432.314C1452.11 435.349 1459.22 445.976 1451.49 455.553C1466.5 451.897 1471.42 468.923 1463.81 477.058C1460.38 471.735 1455.08 467.637 1448.54 465.907C1435.41 462.437 1421.24 465.53 1410.2 475.048C1394.23 461.5 1370.71 461.501 1354.75 475.058C1338.79 461.503 1315.26 461.498 1299.3 475.049C1288.26 465.547 1274.09 462.438 1260.97 465.928L1260.96 465.929C1255.62 467.354 1251.09 470.359 1247.74 474.322C1239.3 462.483 1245.62 445.765 1261.85 447.854C1251.57 433.051 1271.68 416.527 1286.23 427.208C1279.73 414.344 1296.95 399.604 1308.49 414.054ZM1327.08 438.415C1324.58 433.893 1325.67 430.425 1327.88 428.211C1330.32 425.758 1334.36 424.62 1338.03 425.785C1340.13 426.454 1342.38 425.289 1343.05 423.184C1343.72 421.078 1342.56 418.829 1340.45 418.16C1333.86 416.065 1326.71 418.047 1322.21 422.564C1319.39 425.39 1317.68 429.133 1317.64 433.303C1316.37 433.038 1315.11 432.92 1313.87 432.945C1309.94 433.023 1306.5 434.52 1303.86 436.814C1298.72 441.28 1296.37 449.093 1299.67 455.829C1300.64 457.814 1303.03 458.636 1305.02 457.666C1307 456.696 1307.82 454.301 1306.85 452.316C1305.37 449.272 1306.32 445.275 1309.11 442.851C1310.43 441.699 1312.1 440.982 1314.02 440.943C1315.94 440.905 1318.39 441.541 1321.24 443.596C1322.76 444.692 1324.83 444.587 1326.23 443.345C1327.64 442.102 1327.99 440.054 1327.08 438.415ZM1387.15 438.219C1388.88 436.854 1389.19 434.339 1387.82 432.602C1386.46 430.865 1383.94 430.563 1382.2 431.928C1375.23 437.407 1375.77 446.166 1379.71 451.756C1381.72 454.602 1384.74 456.9 1388.45 457.797C1392.23 458.709 1396.39 458.091 1400.46 455.671C1402.36 454.541 1402.98 452.086 1401.85 450.188C1400.72 448.289 1398.27 447.666 1396.37 448.796C1393.92 450.255 1391.88 450.395 1390.33 450.02C1388.71 449.631 1387.27 448.597 1386.25 447.146C1384.13 444.141 1384.32 440.44 1387.15 438.219Z" fill="#F6F7F7"/>
<path fill-rule="evenodd" clip-rule="evenodd" d="M1413.09 483.297C1422.48 473.746 1435.04 470.614 1446.49 473.64L1446.49 473.64C1455.33 475.979 1461.08 484.707 1459.99 493.964L1419.79 733.233H1291.12L1249.51 493.97C1248.42 484.732 1254.18 476.017 1263.03 473.658C1274.47 470.617 1287.03 473.762 1296.45 483.32C1297.2 484.084 1298.22 484.514 1299.3 484.513C1300.37 484.513 1301.4 484.082 1302.15 483.318C1315.82 469.413 1338.21 469.41 1351.9 483.32C1352.66 484.084 1353.68 484.514 1354.76 484.513C1355.83 484.513 1356.86 484.082 1357.61 483.318C1371.28 469.413 1393.67 469.41 1407.36 483.32C1408.11 484.079 1409.13 484.509 1410.2 484.513C1411.26 484.518 1412.29 484.097 1413.04 483.344L1413.06 483.324L1413.09 483.297Z" fill="#00FF89"/>
<path d="M1326.38 588.413C1330.75 588.413 1334.3 584.867 1334.3 580.493C1334.3 576.119 1330.75 572.573 1326.38 572.573C1322 572.573 1318.46 576.119 1318.46 580.493C1318.46 584.867 1322 588.413 1326.38 588.413Z" fill="#231F20"/>
<path d="M1381.16 588.413C1385.53 588.413 1389.08 584.867 1389.08 580.493C1389.08 576.119 1385.53 572.573 1381.16 572.573C1376.78 572.573 1373.24 576.119 1373.24 580.493C1373.24 584.867 1376.78 588.413 1381.16 588.413Z" fill="#231F20"/>
<path d="M1334.5 599.113C1336.7 607.693 1344.5 614.033 1353.76 614.033C1363.04 614.033 1370.82 607.693 1373.04 599.113" stroke="#231F20" stroke-width="8" stroke-miterlimit="10" stroke-linecap="round" stroke-linejoin="round"/>
</svg>
