<svg width="960" height="540" viewBox="0 0 960 540" fill="none" xmlns="http://www.w3.org/2000/svg">
<g clip-path="url(#clip0)">
<rect width="960" height="540" fill="#080808"/>
<g opacity="0.56">
<g opacity="0.24" filter="url(#filter0_f)">
<path fill-rule="evenodd" clip-rule="evenodd" d="M828.744 389.698C963.812 192.956 984.841 -19.5746 875.714 -85.0012C766.587 -150.428 568.629 -43.9751 433.561 152.768C298.493 349.51 277.464 562.041 386.591 627.467C495.718 692.894 693.677 586.441 828.744 389.698Z" fill="#0085FF"/>
</g>
<g opacity="0.7" filter="url(#filter1_f)">
<path fill-rule="evenodd" clip-rule="evenodd" d="M341.501 829.945C591.48 851.349 795.894 794.75 798.073 703.528C800.252 612.307 599.37 521.006 349.391 499.602C99.4123 478.198 -105.002 534.797 -107.181 626.018C-109.359 717.24 91.5225 808.541 341.501 829.945Z" fill="url(#paint0_linear)"/>
</g>
<g opacity="0.4" filter="url(#filter2_f)">
<path fill-rule="evenodd" clip-rule="evenodd" d="M793.576 468.961C830.09 362.605 828.134 267.682 789.208 256.943C750.282 246.205 689.127 323.718 652.613 430.074C616.1 536.429 618.056 631.353 656.982 642.091C695.907 652.829 757.063 575.316 793.576 468.961Z" fill="#0085FF"/>
</g>
<g opacity="0.36" filter="url(#filter3_f)">
<path fill-rule="evenodd" clip-rule="evenodd" d="M257.943 793.817C532.809 753.858 728.516 591.635 695.066 431.482C661.617 271.329 411.677 173.894 136.811 213.853C-138.056 253.812 -333.763 416.036 -300.313 576.188C-266.863 736.341 -16.9236 833.777 257.943 793.817Z" fill="url(#paint1_linear)"/>
</g>
</g>
</g>
<defs>
<filter id="filter0_f" x="-58.2666" y="-479.284" width="1378.84" height="1501.03" filterUnits="userSpaceOnUse" color-interpolation-filters="sRGB">
<feFlood flood-opacity="0" result="BackgroundImageFix"/>
<feBlend mode="normal" in="SourceGraphic" in2="BackgroundImageFix" result="shape"/>
<feGaussianBlur stdDeviation="187.5" result="effect1_foregroundBlur"/>
</filter>
<filter id="filter1_f" x="-482.198" y="120.078" width="1655.29" height="1089.39" filterUnits="userSpaceOnUse" color-interpolation-filters="sRGB">
<feFlood flood-opacity="0" result="BackgroundImageFix"/>
<feBlend mode="normal" in="SourceGraphic" in2="BackgroundImageFix" result="shape"/>
<feGaussianBlur stdDeviation="187.5" result="effect1_foregroundBlur"/>
</filter>
<filter id="filter2_f" x="251.458" y="-119.051" width="943.274" height="1137.14" filterUnits="userSpaceOnUse" color-interpolation-filters="sRGB">
<feFlood flood-opacity="0" result="BackgroundImageFix"/>
<feBlend mode="normal" in="SourceGraphic" in2="BackgroundImageFix" result="shape"/>
<feGaussianBlur stdDeviation="187.5" result="effect1_foregroundBlur"/>
</filter>
<filter id="filter3_f" x="-679.035" y="-170.107" width="1752.82" height="1347.89" filterUnits="userSpaceOnUse" color-interpolation-filters="sRGB">
<feFlood flood-opacity="0" result="BackgroundImageFix"/>
<feBlend mode="normal" in="SourceGraphic" in2="BackgroundImageFix" result="shape"/>
<feGaussianBlur stdDeviation="187.5" result="effect1_foregroundBlur"/>
</filter>
<linearGradient id="paint0_linear" x1="802.018" y1="538.357" x2="-279.937" y2="432.406" gradientUnits="userSpaceOnUse">
<stop stop-color="#1FB7EA"/>
<stop offset="0.725257" stop-color="#00E817"/>
</linearGradient>
<linearGradient id="paint1_linear" x1="145.379" y1="181.414" x2="242.001" y2="798.828" gradientUnits="userSpaceOnUse">
<stop stop-color="#0888FF"/>
<stop offset="1" stop-color="#42D4F4" stop-opacity="0.5"/>
</linearGradient>
<clipPath id="clip0">
<rect width="960" height="540" fill="white"/>
</clipPath>
</defs>
</svg>
