<svg width="23" height="24" viewBox="0 0 23 24" fill="none" xmlns="http://www.w3.org/2000/svg">
<path d="M23 14.9214C22.4799 14.0641 20.2694 14.097 18.124 14.13C17.0675 14.13 15.9786 14.13 14.9871 14.13C9.60724 13.6848 7.33177 11.5415 6.37282 9.89269C5.89828 9.05038 5.62862 8.10541 5.58622 7.1362C5.54382 6.16699 5.7299 5.2015 6.12902 4.31986C6.67661 3.23848 7.45055 2.29156 8.39669 1.54539C9.34282 0.799214 10.4383 0.271813 11.6064 0.000101213C9.57796 -0.00831337 7.58091 0.508078 5.80396 1.50048C4.88633 2.03156 4.03967 2.67987 3.28469 3.42953C2.43 4.32612 1.787 5.40775 1.40411 6.59297C1.02122 7.77818 0.908431 9.03607 1.07423 10.2719C1.29691 11.5764 1.80725 12.813 2.56715 13.8893C3.32704 14.9656 4.31685 15.8539 5.46264 16.4877C8.89209 18.6311 13.0367 18.4828 15.946 18.3838H17.5714C18.8879 18.3838 19.8143 18.5322 20.1232 19.1752C20.1989 19.411 20.1989 19.665 20.1232 19.9007C20.1232 20.0161 20.2369 20.0491 20.3344 19.9007C21.5781 18.4862 22.4698 16.7901 22.935 14.9544" fill="white"/>
<path d="M15.984 22.9919C15.8721 22.3426 14.3856 22.2059 12.5155 22.0521C11.1224 21.955 9.7384 21.7436 8.37562 21.4199C6.57366 20.9888 4.89214 20.1097 3.46747 18.854C2.04279 17.5982 0.915083 16.0011 0.175825 14.1923C9.7654e-07 13.9018 0 13.9531 0 14.2607C0.395244 16.2351 1.23718 18.0758 2.45211 19.6218C3.66703 21.1677 5.21792 22.3718 6.96903 23.1286C8.832 23.9337 10.3896 23.9726 11.1888 23.9726C11.3581 23.9902 11.5285 24 11.7003 24C13.1813 23.9524 14.6404 23.6045 16 22.9748" fill="white"/>
<path d="M9.14667 4.81246C8.96368 5.50774 8.95174 6.23637 9.11186 6.93718C9.27198 7.63798 9.59949 8.2905 10.0669 8.83996C11.372 10.2256 13.0497 11.2129 14.9023 11.6856C16.7549 12.1584 18.7053 12.0969 20.5238 11.5084C21.5558 11.1477 22.4304 10.4451 23 9.5195C22.752 8.43653 22.3521 7.39329 21.8121 6.42014C21.4565 6.79157 21.0141 7.0705 20.5238 7.23227C19.5794 7.52033 18.5784 7.57578 17.6075 7.39383C16.6366 7.21187 15.7252 6.79799 14.9524 6.18811C14.7542 5.96516 14.614 5.69761 14.544 5.40875C14.474 5.11989 14.4764 4.81846 14.5508 4.5307C14.6794 4.14405 14.8977 3.79267 15.1883 3.50481C15.4789 3.21696 15.8336 3.00065 16.2239 2.87329C16.9507 2.69104 17.7 2.6129 18.4491 2.64126C17.6783 2.09104 16.8674 1.59801 16.0231 1.16616C15.8152 1.06253 15.5866 1.00593 15.3539 1.00042H15.0695C14.1559 0.990731 13.2484 1.14805 12.3925 1.4645C11.6279 1.72778 10.9361 2.1647 10.3725 2.7403C9.80883 3.3159 9.38904 4.01419 9.14667 4.77931" fill="white"/>
</svg>
