<svg width="384" height="384" viewBox="0 0 384 384" fill="none" xmlns="http://www.w3.org/2000/svg">
<path d="M186 138C186 134.686 188.686 132 192 132C195.314 132 198 134.686 198 138V210C198 213.314 195.314 216 192 216C188.686 216 186 213.314 186 210V138Z" fill="#D63333"/>
<path d="M183 237C183 232.029 187.029 228 192 228C196.971 228 201 232.029 201 237C201 241.971 196.971 246 192 246C187.029 246 183 241.971 183 237Z" fill="#D63333"/>
<path fill-rule="evenodd" clip-rule="evenodd" d="M192 306C254.96 306 306 254.96 306 192C306 129.04 254.96 78 192 78C129.04 78 78 129.04 78 192C78 254.96 129.04 306 192 306ZM192 318C261.588 318 318 261.588 318 192C318 122.412 261.588 66 192 66C122.412 66 66 122.412 66 192C66 261.588 122.412 318 192 318Z" fill="#D63333"/>
</svg>
